<svg width="170" height="50" viewBox="0 0 170 50" fill="none" xmlns="http://www.w3.org/2000/svg">
<g clip-path="url(#clip0_1_2)">
<rect width="54" height="50" fill="#209CEE"/>
<path d="M33.5796 26.4194C33.5796 26.631 33.5552 26.8711 33.5063 27.1396C33.4575 27.4082 33.4087 27.6442 33.3599 27.8477C33.3192 27.986 33.2581 28.1203 33.1768 28.2505C33.1035 28.3807 33.0547 28.515 33.0303 28.6533C33.0059 28.7754 32.9977 28.9015 33.0059 29.0317C33.0221 29.1538 33.0303 29.2759 33.0303 29.3979C33.0303 29.6828 32.9774 29.9432 32.8716 30.1792C32.7658 30.4152 32.66 30.6634 32.5542 30.9238C32.5135 30.9889 32.4972 31.0581 32.5054 31.1313C32.5135 31.1965 32.4972 31.2616 32.4565 31.3267C32.4159 31.3918 32.3833 31.4325 32.3589 31.4487C32.3345 31.4569 32.3101 31.4691 32.2856 31.4854C32.2694 31.4935 32.2572 31.5179 32.249 31.5586C32.2409 31.5911 32.2368 31.6562 32.2368 31.7539V31.8027C32.1473 31.8516 32.0863 31.9207 32.0537 32.0103C32.0293 32.0998 32.0293 32.1893 32.0537 32.2788C31.8828 32.4416 31.7119 32.6084 31.541 32.7793C31.3783 32.9421 31.2318 33.1252 31.1016 33.3286C30.9388 33.5646 30.7476 33.7762 30.5278 33.9634C30.3081 34.1506 30.0924 34.3459 29.8809 34.5493H29.832C29.5716 34.5493 29.3275 34.5819 29.0996 34.647C28.8799 34.7202 28.6561 34.8219 28.4282 34.9521C28.2817 34.9033 28.123 34.8789 27.9521 34.8789C27.765 34.8789 27.5778 34.9033 27.3906 34.9521C27.2035 35.001 27.0163 35.0254 26.8291 35.0254C26.7396 35.0254 26.6541 35.0132 26.5728 34.9888C26.4995 34.9644 26.4181 34.9521 26.3286 34.9521C26.2635 34.9521 26.2065 34.9644 26.1577 34.9888C26.1089 35.0132 26.0519 35.0254 25.9868 35.0254C25.8647 35.0254 25.7508 34.9969 25.645 34.9399C25.5474 34.883 25.4416 34.8179 25.3276 34.7446C25.2137 34.6795 25.0876 34.6226 24.9492 34.5737C24.819 34.533 24.6644 34.5249 24.4854 34.5493C24.3633 34.4191 24.2127 34.3011 24.0337 34.1953C23.8547 34.0895 23.6675 33.9837 23.4722 33.8779C23.2769 33.764 23.0815 33.646 22.8862 33.5239C22.6991 33.4019 22.5322 33.2594 22.3857 33.0967C22.3695 33.0723 22.3206 32.999 22.2393 32.877C22.1579 32.7467 22.0684 32.6084 21.9707 32.4619C21.8812 32.3154 21.7957 32.1771 21.7144 32.0469C21.633 31.9167 21.5882 31.8353 21.5801 31.8027C21.515 31.6481 21.4743 31.4894 21.458 31.3267C21.4417 31.1558 21.401 30.9889 21.3359 30.8262C21.2627 30.639 21.1895 30.46 21.1162 30.2891C21.043 30.1182 20.9738 29.9473 20.9087 29.7764C20.8517 29.6055 20.8029 29.4305 20.7622 29.2515C20.7215 29.0724 20.7012 28.873 20.7012 28.6533C20.7012 28.5638 20.7134 28.4743 20.7378 28.3848C20.7703 28.2871 20.7866 28.1935 20.7866 28.104C20.7866 27.9982 20.7581 27.8965 20.7012 27.7988C20.6523 27.7012 20.6279 27.6035 20.6279 27.5059C20.6279 27.3757 20.6808 27.2739 20.7866 27.2007C20.7052 27.0623 20.6401 26.9199 20.5913 26.7734C20.5506 26.6188 20.5303 26.4601 20.5303 26.2974C20.5303 26.0939 20.5669 25.9312 20.6401 25.8091C20.7215 25.6789 20.7948 25.5243 20.8599 25.3452C20.8436 25.2557 20.8314 25.1702 20.8232 25.0889C20.8151 24.9993 20.811 24.9098 20.811 24.8203C20.811 24.6087 20.8192 24.4012 20.8354 24.1978C20.8517 23.9943 20.8599 23.7868 20.8599 23.5752C20.8599 23.3962 20.8477 23.2171 20.8232 23.0381C20.7988 22.859 20.7866 22.68 20.7866 22.501C20.7866 22.3464 20.8151 22.1999 20.8721 22.0615C20.929 21.9232 20.9575 21.7767 20.9575 21.6221C20.9575 21.4919 20.925 21.3942 20.8599 21.3291L21.1772 20.6699C21.161 20.5967 21.1488 20.5194 21.1406 20.438C21.1325 20.3566 21.1284 20.2793 21.1284 20.2061C21.1284 20.1003 21.1488 19.9782 21.1895 19.8398C21.2301 19.6934 21.2749 19.5509 21.3237 19.4126C21.3726 19.2743 21.4173 19.1522 21.458 19.0464C21.4987 18.9406 21.515 18.8674 21.5068 18.8267C21.5557 18.6639 21.6126 18.5052 21.6777 18.3506C21.7428 18.196 21.7957 18.0291 21.8364 17.8501C21.9748 17.8257 22.109 17.7646 22.2393 17.667C22.3776 17.5693 22.516 17.5205 22.6543 17.5205C22.6868 17.5205 22.7275 17.5368 22.7764 17.5693C22.8333 17.5938 22.8862 17.6263 22.9351 17.667C22.992 17.6995 23.0409 17.7362 23.0815 17.7769C23.1304 17.8094 23.1711 17.8338 23.2036 17.8501C23.3257 17.9478 23.4315 18.0698 23.521 18.2163C23.6105 18.3547 23.6838 18.5052 23.7407 18.668C23.8058 18.8226 23.8547 18.9854 23.8872 19.1562C23.9198 19.3271 23.936 19.4899 23.936 19.6445C23.936 19.8236 23.9198 20.0067 23.8872 20.1938C23.8628 20.3729 23.8343 20.5601 23.8018 20.7554C23.7773 20.9507 23.7489 21.1582 23.7163 21.3779C23.6919 21.5895 23.6797 21.8133 23.6797 22.0493C23.6797 22.147 23.6675 22.2487 23.6431 22.3545C23.6187 22.4521 23.6064 22.5498 23.6064 22.6475C23.6064 22.7777 23.6309 22.8997 23.6797 23.0137C23.7285 23.1276 23.7529 23.2497 23.7529 23.3799C23.7529 23.4938 23.7367 23.6077 23.7041 23.7217C23.6715 23.8275 23.6349 23.9373 23.5942 24.0513C23.5535 24.1652 23.5169 24.2791 23.4844 24.3931C23.4518 24.507 23.4355 24.625 23.4355 24.7471C23.4355 24.9831 23.464 25.2231 23.521 25.4673C23.578 25.7033 23.6064 25.9393 23.6064 26.1753C23.6064 26.3381 23.5902 26.4967 23.5576 26.6514C23.5251 26.806 23.5088 26.9647 23.5088 27.1274C23.5088 27.4285 23.5373 27.7297 23.5942 28.0308C23.6593 28.3237 23.7122 28.6126 23.7529 28.8975C23.8018 29.1904 23.8547 29.4549 23.9116 29.6909C23.9686 29.9188 24.0418 30.1385 24.1313 30.3501C24.2209 30.5617 24.3226 30.7692 24.4365 30.9727C24.5586 31.1761 24.7051 31.3999 24.876 31.644C24.9329 31.7091 24.998 31.7946 25.0713 31.9004C25.1445 32.0062 25.2137 32.0794 25.2788 32.1201C25.3276 32.1445 25.3805 32.1567 25.4375 32.1567C25.5026 32.1567 25.5596 32.173 25.6084 32.2056C25.7549 32.2707 25.881 32.3276 25.9868 32.3765C26.0926 32.4253 26.1984 32.466 26.3042 32.4985C26.41 32.5311 26.5199 32.5555 26.6338 32.5718C26.7559 32.5881 26.8983 32.5962 27.061 32.5962C27.2319 32.5962 27.3499 32.5881 27.415 32.5718C27.4801 32.5555 27.5249 32.5352 27.5493 32.5107C27.5737 32.4782 27.5981 32.4416 27.6226 32.4009C27.647 32.3602 27.6999 32.3195 27.7812 32.2788C27.8952 32.2218 28.0132 32.1852 28.1353 32.1689C28.2655 32.1527 28.3875 32.112 28.5015 32.0469C28.6805 31.9492 28.8351 31.8312 28.9653 31.6929C29.0955 31.5464 29.2176 31.3958 29.3315 31.2412C29.4455 31.0785 29.5553 30.9198 29.6611 30.7651C29.7751 30.6105 29.9053 30.4722 30.0518 30.3501C30.0599 30.3257 30.0884 30.2321 30.1372 30.0693C30.186 29.9066 30.2389 29.7316 30.2959 29.5444C30.3529 29.3573 30.4058 29.1904 30.4546 29.0439C30.5034 28.8893 30.5278 28.8079 30.5278 28.7998C30.5278 28.6859 30.5034 28.5841 30.4546 28.4946C30.4058 28.397 30.3813 28.2912 30.3813 28.1772C30.3813 28.0552 30.4017 27.9412 30.4424 27.8354C30.4831 27.7297 30.5278 27.6279 30.5767 27.5303C30.6336 27.4245 30.6825 27.3187 30.7231 27.2129C30.7638 27.1071 30.7842 26.9932 30.7842 26.8711C30.7842 26.7327 30.7516 26.6025 30.6865 26.4805C30.6296 26.3503 30.6011 26.216 30.6011 26.0776C30.6011 25.9963 30.6174 25.923 30.6499 25.8579C30.6906 25.7928 30.7109 25.7236 30.7109 25.6504C30.7109 25.5609 30.6784 25.4958 30.6133 25.4551C30.5563 25.4062 30.5278 25.3289 30.5278 25.2231C30.5278 25.0848 30.54 24.9546 30.5645 24.8325C30.5889 24.7023 30.6011 24.568 30.6011 24.4297C30.6011 24.2751 30.5767 24.1164 30.5278 23.9536C30.479 23.7909 30.4302 23.6403 30.3813 23.502C30.3813 23.3962 30.4058 23.2985 30.4546 23.209C30.5034 23.1195 30.5278 23.0259 30.5278 22.9282C30.5278 22.798 30.5075 22.6678 30.4668 22.5376C30.4261 22.4074 30.3854 22.2772 30.3447 22.147C30.3122 22.0168 30.2837 21.8866 30.2593 21.7563C30.2349 21.618 30.243 21.4756 30.2837 21.3291C30.1698 21.1501 30.0721 20.9507 29.9907 20.731C29.9175 20.5112 29.8564 20.2834 29.8076 20.0474C29.7588 19.8114 29.7222 19.5794 29.6978 19.3516C29.6733 19.1156 29.6611 18.8999 29.6611 18.7046C29.6611 18.5907 29.6286 18.5052 29.5635 18.4482C29.5065 18.3913 29.478 18.3262 29.478 18.2529C29.478 18.1471 29.5024 18.0535 29.5513 17.9722C29.6082 17.8908 29.6367 17.8013 29.6367 17.7036C29.653 17.6222 29.6571 17.5409 29.6489 17.4595C29.6408 17.3781 29.6367 17.3008 29.6367 17.2275C29.6367 17.1543 29.6408 17.0811 29.6489 17.0078C29.6652 16.9346 29.6937 16.8654 29.7344 16.8003C29.8727 16.6864 30.0273 16.5968 30.1982 16.5317C30.3691 16.4585 30.5482 16.4219 30.7354 16.4219C30.8086 16.4219 30.8818 16.4259 30.9551 16.4341C31.0283 16.4422 31.1056 16.4544 31.187 16.4707C31.2033 16.5439 31.2358 16.6131 31.2847 16.6782C31.3416 16.7352 31.4027 16.7922 31.4678 16.8491C31.5329 16.9061 31.598 16.9631 31.6631 17.02C31.7282 17.077 31.7852 17.138 31.834 17.2031C31.8991 17.3171 31.9398 17.4391 31.9561 17.5693C31.9723 17.6914 32.0049 17.8094 32.0537 17.9233C32.0944 18.0291 32.1514 18.1309 32.2246 18.2285C32.306 18.318 32.3589 18.4076 32.3833 18.4971C32.4077 18.5866 32.4118 18.6761 32.3955 18.7656C32.3874 18.847 32.3833 18.9325 32.3833 19.022L32.7007 20.6699L32.8594 20.8286C32.8675 20.8612 32.8838 20.9548 32.9082 21.1094C32.9326 21.2559 32.957 21.4186 32.9814 21.5977C33.0059 21.7686 33.0262 21.9313 33.0425 22.0859C33.0669 22.2324 33.0791 22.3219 33.0791 22.3545C33.0791 22.3952 33.075 22.4359 33.0669 22.4766C33.0588 22.5173 33.0465 22.5579 33.0303 22.5986C33.1035 22.6637 33.1523 22.7451 33.1768 22.8428C33.2012 22.9323 33.2174 23.0299 33.2256 23.1357C33.2419 23.2415 33.25 23.3514 33.25 23.4653C33.25 23.5711 33.2622 23.6647 33.2866 23.7461C33.3029 23.8275 33.3314 23.9007 33.3721 23.9658C33.4128 24.0309 33.4331 24.1082 33.4331 24.1978C33.4331 24.3035 33.4209 24.4012 33.3965 24.4907C33.3721 24.5802 33.3599 24.682 33.3599 24.7959C33.3599 25.0563 33.3965 25.3249 33.4697 25.6016C33.543 25.8701 33.5796 26.1427 33.5796 26.4194Z" fill="#F0F4F8"/>
<path d="M66.86 19.04V28.1C66.86 29.1267 67.0267 29.88 67.36 30.36C67.7067 30.84 68.3333 31.08 69.24 31.08C70.1467 31.08 70.7667 30.84 71.1 30.36C71.4467 29.88 71.62 29.1267 71.62 28.1V19.04H74.12V27.74C74.12 28.7 74.0333 29.5267 73.86 30.22C73.7 30.9133 73.4267 31.4867 73.04 31.94C72.6533 32.38 72.1467 32.7067 71.52 32.92C70.9067 33.1333 70.1467 33.24 69.24 33.24C68.3333 33.24 67.5667 33.1333 66.94 32.92C66.3267 32.7067 65.8267 32.38 65.44 31.94C65.0533 31.4867 64.7733 30.9133 64.6 30.22C64.44 29.5267 64.36 28.7 64.36 27.74V19.04H66.86ZM76.8005 33V22.56H79.2205V24.3H79.5005C79.9138 22.98 80.7471 22.32 82.0005 22.32C82.9338 22.32 83.6538 22.64 84.1605 23.28C84.6671 23.9067 84.9205 24.8067 84.9205 25.98V33H82.5005V26.4C82.5005 25.04 81.9938 24.36 80.9805 24.36C80.4871 24.36 80.0671 24.5067 79.7205 24.8C79.3871 25.08 79.2205 25.48 79.2205 26V33H76.8005ZM91.385 33.24C90.705 33.24 90.0783 33.1333 89.505 32.92C88.945 32.6933 88.465 32.36 88.065 31.92C87.665 31.4667 87.3517 30.9 87.125 30.22C86.9117 29.5267 86.805 28.7133 86.805 27.78C86.805 25.9 87.1783 24.52 87.925 23.64C88.685 22.76 89.765 22.32 91.165 22.32C92.565 22.32 93.6383 22.76 94.385 23.64C95.145 24.52 95.525 25.9 95.525 27.78V28.36H89.345V29.04C89.345 29.7333 89.5383 30.28 89.925 30.68C90.3117 31.08 90.845 31.28 91.525 31.28C92.0983 31.28 92.5783 31.16 92.965 30.92C93.365 30.6667 93.705 30.3067 93.985 29.84L95.305 31.22C94.9183 31.8333 94.3983 32.3267 93.745 32.7C93.0917 33.06 92.305 33.24 91.385 33.24ZM91.165 24.18C89.9517 24.18 89.345 24.9 89.345 26.34V26.86H92.985V26.34C92.985 24.9 92.3783 24.18 91.165 24.18ZM97.5427 33V22.56H99.9627V24.3H100.243C100.656 22.98 101.476 22.32 102.703 22.32C104.009 22.32 104.856 23.0067 105.243 24.38H105.483C105.709 23.6733 106.056 23.1533 106.523 22.82C107.003 22.4867 107.583 22.32 108.263 22.32C109.143 22.32 109.829 22.64 110.323 23.28C110.816 23.9067 111.063 24.8067 111.063 25.98V33H108.643V26.4C108.643 25.04 108.156 24.36 107.183 24.36C106.716 24.36 106.316 24.5067 105.983 24.8C105.663 25.08 105.503 25.48 105.503 26V33H103.083V26.4C103.083 25.68 102.963 25.16 102.723 24.84C102.483 24.52 102.123 24.36 101.643 24.36C101.176 24.36 100.776 24.5067 100.443 24.8C100.123 25.08 99.9627 25.48 99.9627 26V33H97.5427ZM113.578 22.56H115.998V24.28H116.278C116.424 23.6933 116.718 23.22 117.158 22.86C117.611 22.5 118.138 22.32 118.738 22.32C119.964 22.32 120.871 22.7867 121.458 23.72C122.044 24.64 122.338 25.9933 122.338 27.78C122.338 29.5667 122.044 30.9267 121.458 31.86C120.871 32.78 119.964 33.24 118.738 33.24C118.138 33.24 117.611 33.06 117.158 32.7C116.718 32.34 116.424 31.8667 116.278 31.28H115.998V37H113.578V22.56ZM117.818 31.24C118.444 31.24 118.931 31.0467 119.278 30.66C119.624 30.2733 119.798 29.7267 119.798 29.02V26.54C119.798 25.8333 119.624 25.2867 119.278 24.9C118.931 24.5133 118.444 24.32 117.818 24.32C117.271 24.32 116.831 24.46 116.498 24.74C116.164 25.0067 115.998 25.3867 115.998 25.88V29.68C115.998 30.1733 116.164 30.56 116.498 30.84C116.831 31.1067 117.271 31.24 117.818 31.24ZM126.817 33C125.977 33 125.37 32.8133 124.997 32.44C124.637 32.0667 124.457 31.48 124.457 30.68V18.2H126.877V31.06H128.077V33H126.817ZM133.548 33.24C132.162 33.24 131.082 32.8 130.308 31.92C129.548 31.04 129.168 29.66 129.168 27.78C129.168 25.9 129.548 24.52 130.308 23.64C131.082 22.76 132.162 22.32 133.548 22.32C134.935 22.32 136.008 22.76 136.768 23.64C137.542 24.52 137.928 25.9 137.928 27.78C137.928 29.66 137.542 31.04 136.768 31.92C136.008 32.8 134.935 33.24 133.548 33.24ZM133.548 31.28C134.775 31.28 135.388 30.56 135.388 29.12V26.44C135.388 25 134.775 24.28 133.548 24.28C132.322 24.28 131.708 25 131.708 26.44V29.12C131.708 30.56 132.322 31.28 133.548 31.28ZM145.49 22.56H147.91L143.93 35.18C143.703 35.8867 143.383 36.3667 142.97 36.62C142.556 36.8733 141.976 37 141.23 37H139.59V35.06H141.65L142.07 33.58L138.59 22.56H141.05L142.61 28.2L143.17 30.94H143.41L143.97 28.18L145.49 22.56ZM153.201 33.24C152.521 33.24 151.895 33.1333 151.321 32.92C150.761 32.6933 150.281 32.36 149.881 31.92C149.481 31.4667 149.168 30.9 148.941 30.22C148.728 29.5267 148.621 28.7133 148.621 27.78C148.621 25.9 148.995 24.52 149.741 23.64C150.501 22.76 151.581 22.32 152.981 22.32C154.381 22.32 155.455 22.76 156.201 23.64C156.961 24.52 157.341 25.9 157.341 27.78V28.36H151.161V29.04C151.161 29.7333 151.355 30.28 151.741 30.68C152.128 31.08 152.661 31.28 153.341 31.28C153.915 31.28 154.395 31.16 154.781 30.92C155.181 30.6667 155.521 30.3067 155.801 29.84L157.121 31.22C156.735 31.8333 156.215 32.3267 155.561 32.7C154.908 33.06 154.121 33.24 153.201 33.24ZM152.981 24.18C151.768 24.18 151.161 24.9 151.161 26.34V26.86H154.801V26.34C154.801 24.9 154.195 24.18 152.981 24.18ZM165.179 31.28H164.899C164.752 31.8667 164.452 32.34 163.999 32.7C163.559 33.06 163.039 33.24 162.439 33.24C161.212 33.24 160.306 32.78 159.719 31.86C159.132 30.9267 158.839 29.5667 158.839 27.78C158.839 25.9933 159.132 24.64 159.719 23.72C160.306 22.7867 161.212 22.32 162.439 22.32C163.039 22.32 163.559 22.5 163.999 22.86C164.452 23.22 164.752 23.6933 164.899 24.28H165.179V18.2H167.599V33H165.179V31.28ZM163.359 31.24C163.906 31.24 164.346 31.1067 164.679 30.84C165.012 30.56 165.179 30.1733 165.179 29.68V25.88C165.179 25.3867 165.012 25.0067 164.679 24.74C164.346 24.46 163.906 24.32 163.359 24.32C162.732 24.32 162.246 24.5133 161.899 24.9C161.552 25.2867 161.379 25.8333 161.379 26.54V29.02C161.379 29.7267 161.552 30.2733 161.899 30.66C162.246 31.0467 162.732 31.24 163.359 31.24Z" fill="#209CEE"/>
</g>
<defs>
<clipPath id="clip0_1_2">
<rect width="170" height="50" fill="white"/>
</clipPath>
</defs>
</svg>
